<svg xmlns="http://www.w3.org/2000/svg" xmlns:xlink="http://www.w3.org/1999/xlink" width="940" zoomAndPan="magnify" viewBox="0 0 705 591.000005" height="788" preserveAspectRatio="xMidYMid meet" version="1.2"><defs><clipPath id="fb8b3247fc"><path d="M 66 20.734375 L 74 20.734375 L 74 38 L 66 38 Z M 66 20.734375 "/></clipPath><clipPath id="4deb3d339f"><path d="M 38.628906 44 L 109 44 L 109 97.105469 L 38.628906 97.105469 Z M 38.628906 44 "/></clipPath></defs><g id="1bba38044a"><path style=" stroke:none;fill-rule:nonzero;fill:#e5530c;fill-opacity:1;" d="M 71.210938 31.941406 C 70.742188 32.5625 70.863281 33.441406 71.484375 33.910156 C 73.410156 35.367188 72.929688 36.546875 71.058594 39.542969 C 69.476562 42.085938 67.308594 45.566406 70.496094 48.960938 C 70.773438 49.253906 71.144531 49.402344 71.519531 49.402344 C 71.867188 49.402344 72.210938 49.277344 72.484375 49.023438 C 73.050781 48.492188 73.078125 47.601562 72.546875 47.035156 C 71.003906 45.390625 71.636719 43.941406 73.449219 41.03125 C 75.085938 38.402344 77.328125 34.800781 73.179688 31.667969 C 72.558594 31.199219 71.679688 31.320312 71.210938 31.941406 Z M 71.210938 31.941406 "/><path style=" stroke:none;fill-rule:nonzero;fill:#e5530c;fill-opacity:1;" d="M 77.246094 36.863281 C 77.523438 37.15625 77.898438 37.308594 78.273438 37.308594 C 78.617188 37.308594 78.964844 37.179688 79.234375 36.925781 C 79.800781 36.394531 79.832031 35.503906 79.296875 34.9375 C 78.007812 33.5625 78.527344 32.386719 80.113281 29.839844 C 81.511719 27.597656 83.621094 24.210938 79.835938 21.351562 C 79.21875 20.882812 78.335938 21.007812 77.867188 21.625 C 77.398438 22.246094 77.523438 23.128906 78.140625 23.597656 C 79.667969 24.75 79.441406 25.597656 77.726562 28.351562 C 76.300781 30.640625 74.347656 33.773438 77.246094 36.863281 Z M 77.246094 36.863281 "/><g clip-rule="nonzero" clip-path="url(#fb8b3247fc)"><path style=" stroke:none;fill-rule:nonzero;fill:#e5530c;fill-opacity:1;" d="M 68.402344 37.144531 C 68.679688 37.4375 69.054688 37.589844 69.429688 37.589844 C 69.773438 37.589844 70.121094 37.460938 70.390625 37.207031 C 70.957031 36.675781 70.984375 35.785156 70.453125 35.21875 C 69.101562 33.777344 69.636719 32.554688 71.289062 29.902344 C 72.722656 27.601562 74.886719 24.125 71.015625 21.203125 C 70.394531 20.734375 69.515625 20.855469 69.046875 21.476562 C 68.578125 22.097656 68.699219 22.980469 69.320312 23.449219 C 70.925781 24.660156 70.691406 25.542969 68.902344 28.414062 C 67.4375 30.765625 65.433594 33.984375 68.402344 37.144531 Z M 68.402344 37.144531 "/></g><g clip-rule="nonzero" clip-path="url(#4deb3d339f)"><path style=" stroke:none;fill-rule:nonzero;fill:#e5530c;fill-opacity:1;" d="M 98.871094 51.175781 C 98.832031 50.957031 98.792969 50.738281 98.753906 50.519531 C 98.605469 48.339844 95.546875 47.292969 92.875 46.621094 C 89.710938 45.828125 85.367188 45.234375 80.320312 44.910156 C 79.542969 44.863281 78.875 45.449219 78.824219 46.222656 C 78.773438 47 79.363281 47.667969 80.136719 47.71875 C 89.980469 48.351562 94.613281 49.851562 95.753906 50.675781 C 95.195312 51.074219 93.46875 51.960938 88.511719 52.757812 C 83.84375 53.507812 77.804688 53.921875 71.511719 53.921875 C 65.21875 53.921875 59.183594 53.507812 54.515625 52.757812 C 49.554688 51.960938 47.828125 51.074219 47.269531 50.675781 C 48.421875 49.84375 53.113281 48.332031 63.09375 47.707031 C 63.867188 47.65625 64.457031 46.988281 64.410156 46.214844 C 64.359375 45.4375 63.695312 44.847656 62.917969 44.898438 C 57.816406 45.21875 53.421875 45.808594 50.214844 46.605469 C 46.101562 47.628906 44.265625 48.886719 44.265625 50.6875 C 44.265625 50.769531 44.269531 50.851562 44.277344 50.933594 C 43.898438 53.066406 43.703125 55.25 43.703125 57.4375 C 43.703125 66.558594 47.027344 74.804688 52.351562 80.648438 C 45.800781 81.835938 38.640625 84.058594 38.640625 88.101562 C 38.640625 90.925781 42.105469 93.191406 48.945312 94.839844 C 55 96.300781 63.027344 97.105469 71.554688 97.105469 C 80.078125 97.105469 88.105469 96.300781 94.160156 94.839844 C 101 93.191406 104.46875 90.925781 104.46875 88.101562 C 104.46875 84.070312 97.363281 81.84375 90.753906 80.648438 C 91.769531 79.53125 92.714844 78.324219 93.578125 77.042969 C 94.234375 77.144531 94.894531 77.191406 95.550781 77.191406 C 98.332031 77.191406 101.035156 76.316406 103.324219 74.644531 C 106.175781 72.5625 108.042969 69.492188 108.585938 66 C 109.640625 59.246094 105.351562 52.867188 98.871094 51.175781 Z M 46.730469 53.601562 C 48.15625 54.28125 50.222656 54.855469 52.992188 55.351562 C 57.953125 56.242188 64.527344 56.734375 71.511719 56.734375 C 78.496094 56.734375 85.074219 56.242188 90.03125 55.351562 C 92.851562 54.847656 94.941406 54.261719 96.371094 53.5625 C 96.515625 54.847656 96.589844 56.140625 96.589844 57.4375 C 96.589844 73.570312 85.359375 86.695312 71.554688 86.695312 C 57.746094 86.695312 46.515625 73.570312 46.515625 57.4375 C 46.515625 56.152344 46.589844 54.871094 46.730469 53.601562 Z M 101.652344 88.101562 C 101.652344 88.667969 100.191406 90.492188 93.503906 92.105469 C 87.65625 93.515625 79.863281 94.289062 71.554688 94.289062 C 63.246094 94.289062 55.449219 93.515625 49.601562 92.105469 C 42.917969 90.492188 41.453125 88.667969 41.453125 88.101562 C 41.453125 87.363281 43.785156 84.882812 54.164062 83.191406 C 54.371094 83.15625 54.554688 83.078125 54.71875 82.96875 C 59.398438 87.070312 65.234375 89.507812 71.554688 89.507812 C 77.835938 89.507812 83.640625 87.097656 88.304688 83.042969 C 88.410156 83.085938 88.519531 83.125 88.636719 83.140625 C 98.121094 84.648438 101.652344 86.984375 101.652344 88.101562 Z M 105.808594 65.570312 C 105.007812 70.699219 100.570312 74.378906 95.527344 74.378906 C 95.417969 74.378906 95.304688 74.375 95.195312 74.371094 C 97.859375 69.453125 99.402344 63.648438 99.402344 57.4375 C 99.402344 56.375 99.355469 55.3125 99.265625 54.257812 C 103.738281 55.980469 106.574219 60.644531 105.808594 65.570312 Z M 105.808594 65.570312 "/></g><path style=" stroke:none;fill-rule:nonzero;fill:#e5530c;fill-opacity:1;" d="M 68.285156 83.691406 C 69.0625 83.691406 69.691406 83.0625 69.691406 82.285156 C 69.691406 81.507812 69.0625 80.878906 68.285156 80.878906 C 63.058594 80.878906 55.847656 73.953125 54.714844 69.074219 C 54.539062 68.316406 53.78125 67.847656 53.023438 68.023438 C 52.269531 68.199219 51.796875 68.957031 51.972656 69.710938 C 53.648438 76.914062 62.582031 83.691406 68.285156 83.691406 Z M 68.285156 83.691406 "/></g></svg>